<?xml version="1.0" encoding="UTF-8" standalone="no"?><!DOCTYPE svg PUBLIC "-//W3C//DTD SVG 1.1//EN" "http://www.w3.org/Graphics/SVG/1.1/DTD/svg11.dtd"><svg width="100%" height="100%" viewBox="0 0 35 46" version="1.1" xmlns="http://www.w3.org/2000/svg" xmlns:xlink="http://www.w3.org/1999/xlink" xml:space="preserve" xmlns:serif="http://www.serif.com/" style="fill-rule:evenodd;clip-rule:evenodd;stroke-linecap:round;stroke-linejoin:round;stroke-miterlimit:1.5;"><g><path d="M14.732,3.406c-5.894,0 -9.462,-1.087 -12.36,14.022c-1.074,5.599 -1.69,12.945 -1.763,13.802c-0.032,0.378 -1.397,4.361 3.842,9.601c4.775,4.774 9.704,4.269 14.298,4.269c0.76,0 3.922,1.036 11.438,-6.736c2.125,-2.198 3.158,-6.832 3.246,-7.214c2.139,-9.285 -0.802,-15.209 -1.376,-16.368c-0.211,-0.427 -4.121,-8.386 -6.128,-9.496c-2.165,-1.198 -10.603,-1.868 -11.06,-1.905" style="fill:#fff;stroke:#000;stroke-width:0.85px;"/><path d="M5.421,13.924c-0.124,0.568 -0.169,0.551 -0.463,1.052c0.992,-0.345 0.995,-0.32 2.008,-0.584l-0.244,0.69l1.529,-0.222l-0.24,0.804c0.332,-0.003 0.741,-0.303 1.073,-0.306c0.085,-0 -0.08,0.268 0,0.298c0.118,0.043 2.312,0.102 2.513,0.108l-0.47,1.254l1.442,0.003c0.287,1.051 0.698,0.752 1.584,0.361" style="fill:none;stroke:#000;stroke-width:0.85px;"/><path d="M18.307,17.071c0.01,0.098 0.002,0.097 -0.021,0.38l0.05,-0.09c0.381,-0.772 0.451,-0.723 1.064,-1.327l0.032,0.64c0.567,-0.513 1.003,-1.544 1.784,-0.121c2.28,-3.062 2.779,-2.844 2.854,-2.547c0.291,1.141 0.629,-0.048 1.591,-0.626c1.045,-0.628 1.436,0.13 2.431,-0.885" style="fill:none;stroke:#000;stroke-width:0.85px;"/><path d="M9.853,20.416c-0.112,0.402 -0.683,2.215 0.944,5.139" style="fill:none;stroke:#000;stroke-width:1.5px;"/><path d="M23.29,20.658c0,3.103 0.156,3.162 -0.971,6.087" style="fill:none;stroke:#000;stroke-width:1.5px;"/><path d="M7.011,31.851c0.051,0.661 -0.391,1.081 1.127,3.449c1.645,2.566 5.88,3.712 7.772,3.886c8.129,0.748 8.522,-3.928 8.821,-7.005" style="fill:none;stroke:#000;stroke-width:2px;"/><path d="M6.058,2.538c-0.058,0.11 0.684,1.88 0.752,2.04c0.405,0.965 0.306,1.108 0.829,2.077" style="fill:none;stroke:#000;stroke-width:0.85px;"/><path d="M12.351,0.729c-0.025,2.5 -0.021,2.496 -0.021,4.996" style="fill:none;stroke:#000;stroke-width:0.85px;"/><path d="M21.272,0.425c-0.107,0.273 -1.96,5.106 -4.153,5.724" style="fill:none;stroke:#000;stroke-width:0.85px;"/><path d="M26.859,1.732c-0.022,2.052 0.546,2.791 -1.514,3.262c-0.322,0.073 -3.734,1.648 -4.056,1.796" style="fill:none;stroke:#000;stroke-width:0.85px;"/><path d="M30.424,5.769c-0.119,0.208 -1.13,1.968 -1.783,2.415c-0.215,0.148 -0.298,-0.088 -3.116,0.951" style="fill:none;stroke:#000;stroke-width:0.85px;"/></g></svg>